<svg width="160" height="220" viewBox="0 0 160 220" fill="none" xmlns="http://www.w3.org/2000/svg">
  <defs>
    <linearGradient id="palmGradient" x1="20" y1="40" x2="140" y2="210" gradientUnits="userSpaceOnUse">
      <stop offset="0" stop-color="#FFE1C3" />
      <stop offset="1" stop-color="#FFB774" />
    </linearGradient>
    <linearGradient id="fingerGradient" x1="0" y1="0" x2="0" y2="1" gradientUnits="objectBoundingBox">
      <stop offset="0" stop-color="#FFF4E9" />
      <stop offset="1" stop-color="#FFC48C" />
    </linearGradient>
  </defs>
  <g filter="url(#shadow)">
    <rect x="35" y="70" width="90" height="120" rx="45" fill="url(#palmGradient)" stroke="#F48A42" stroke-width="4" />
    <rect x="30" y="38" width="20" height="88" rx="10" fill="url(#fingerGradient)" stroke="#F48A42" stroke-width="3" />
    <rect x="55" y="30" width="20" height="96" rx="10" fill="url(#fingerGradient)" stroke="#F48A42" stroke-width="3" />
    <rect x="80" y="30" width="20" height="96" rx="10" fill="url(#fingerGradient)" stroke="#F48A42" stroke-width="3" />
    <rect x="105" y="36" width="20" height="90" rx="10" fill="url(#fingerGradient)" stroke="#F48A42" stroke-width="3" />
    <path d="M121 132C137 143 143 170 129 182C118 191 94 179 94 157C94 140 104 128 121 132Z" fill="#FFD8B0" stroke="#F48A42" stroke-width="3" />
    <circle cx="70" cy="140" r="14" fill="#FFF3E2" opacity="0.6" />
    <circle cx="102" cy="170" r="10" fill="#FFF3E2" opacity="0.4" />
  </g>
  <defs>
    <filter id="shadow" x="0" y="0" width="160" height="220" filterUnits="userSpaceOnUse" color-interpolation-filters="sRGB">
      <feDropShadow dx="0" dy="10" stdDeviation="8" flood-opacity="0.15" />
    </filter>
  </defs>
</svg>