<svg xmlns="http://www.w3.org/2000/svg" width="225" height="60" fill="none" viewBox="0 0 225 60"><path fill="currentColor" fill-rule="evenodd" d="M19.252 6.127a3.88 3.88 0 0 1 4.036 1.349c.362.452.733.948 1.105 1.484l2.252-1.735.096-.07c2.023-1.45 4.912-.177 5.132 2.306l.773 8.745c2.056.514 4.297 1.347 6.746 2.682 1.646.897 2.145 3.05.949 4.555-1.464 1.844-3.611 3.98-6.318 5.224l5.711 15.397c.626 1.688.545 3.563-.268 5.102-.846 1.602-2.481 2.787-4.628 2.83-3.332.069-7.43-.885-11.105-4.125-3.166 2.36-7.128 3.232-10.311 3.462-4.65.337-7.163-4.085-6.229-7.798l9.18-36.485.037-.138a4.01 4.01 0 0 1 2.842-2.785M11.689 46.63c-.167.662-.01 1.263.275 1.65.26.353.625.545 1.118.51 2.708-.196 5.465-.892 7.577-2.358-1.94-2.747-2.586-5.291-2.012-7.491.679-2.603 2.966-4.132 5.1-4.132 1.76 0 4.057.902 5.01 3.284.926 2.311.231 5.173-1.846 8.395l-.027.04c2.683 2.337 5.562 2.96 7.858 2.914a.7.7 0 0 0 .373-.096.7.7 0 0 0 .242-.282c.168-.318.243-.855.027-1.437L29.48 31.709c-2.527.011-5.191-.918-7.823-3.144a2.253 2.253 0 0 1-.247-3.213 2.34 2.34 0 0 1 3.266-.242c2.673 2.26 4.88 2.329 6.692 1.708a7 7 0 0 0 .366-.138v-4c-1.87-.49-3.545-.652-5.079-.693a2.73 2.73 0 0 1-2.628-2.255c-.556-3.28-2.01-6.128-3.495-8.255zm12.057-7.265s-.083 0-.25.128c-.14.107-.287.286-.364.58-.099.379-.13 1.245.633 2.654.948-1.859.776-2.735.684-2.965-.084-.208-.325-.397-.703-.397" clip-rule="evenodd"/><path fill="currentColor" d="M57.796 43.252q-1.908 0-2.988-.9-1.08-.936-1.512-3.024-.396-2.088-.396-5.58 0-4.5.684-7.704.684-3.24 2.016-5.148 1.692-2.448 4.428-3.456 2.772-1.044 5.94-1.044 5.04 0 7.416 2.196t2.376 5.76q0 2.268-1.08 3.888-1.044 1.584-2.916 2.448-1.836.828-4.248.9v.144q4.392 1.332 6.228 3.096 1.836 1.728 1.836 3.744 0 1.944-1.296 3.096t-3.528 1.152q-1.764 0-3.204-.9-1.404-.936-2.736-3.168-1.296-2.268-2.844-6.264h-.144q.18.684.288 1.656.144.972.216 2.016.108 1.008.108 1.908 0 2.52-1.044 3.852t-3.6 1.332m7.092-16.236q.9 0 1.548-.288.684-.288 1.044-.792.396-.54.396-1.224 0-1.224-.684-2.016-.648-.828-2.124-.828-.972 0-1.728.36-.72.324-1.116.9-.396.54-.396 1.188 0 1.188.792 1.944.828.756 2.268.756M94.223 43.36q-2.088 0-2.772-.936-.648-.972-.612-3.06l.612.18q-1.944 3.924-7.452 3.924-2.52 0-4.176-.864-1.62-.9-2.448-2.34-.792-1.44-.792-3.204 0-2.988 2.196-4.716 2.232-1.764 5.904-1.764 2.232 0 3.924.684t2.844 1.908l-1.152-.072q0-2.808-1.044-3.996t-3.06-1.188q-.864 0-1.872.288-.972.252-2.016.54a9 9 0 0 1-2.124.252q-1.44 0-2.268-.756-.792-.792-.792-2.016 0-1.656 1.404-2.952t3.708-2.052q2.34-.756 5.04-.756 3.528 0 6.12 1.332 2.592 1.296 3.636 4.032.792 1.98 1.116 4.464.36 2.484.36 5.292 0 3.06-.432 4.752t-1.404 2.376q-.936.648-2.448.648m-7.056-5.256q.72 0 1.44-.216.756-.252 1.26-.684.504-.468.504-1.116t-.396-1.044-1.08-.576a5.2 5.2 0 0 0-1.404-.18q-1.368 0-2.196.576t-.828 1.44q0 .792.72 1.296.756.504 1.98.504m17.448-22.716q2.232 0 3.168 1.044.972 1.044.972 2.412 0 1.656-1.188 2.592-1.188.9-3.312.9-2.088 0-3.132-1.008-1.008-1.008-1.008-2.376 0-1.764 1.224-2.664 1.26-.9 3.276-.9m.396 8.028q1.764 0 2.736 2.16 1.008 2.16 1.008 6.876 0 5.796-1.26 8.352-1.224 2.556-3.744 2.556-1.98 0-2.916-1.872-.9-1.908-.9-6.624 0-5.796 1.404-8.604 1.404-2.844 3.672-2.844m15.917-2.952q3.888 0 5.58 1.368 1.728 1.332 1.728 3.456 0 1.332-.9 2.196-.864.864-2.448.864-1.152 0-2.484-.36-1.296-.396-2.988-.396-.792 0-1.224.288a.9.9 0 0 0-.396.756q0 .468.432.792.468.288 2.016.468 2.736.216 4.608.864 1.908.648 2.88 2.016.972 1.332.972 3.708 0 3.492-2.628 5.076-2.592 1.584-7.236 1.584-3.204 0-5.148-.612-1.944-.648-2.808-1.764a4.26 4.26 0 0 1-.864-2.628q0-1.44.936-2.232a3.4 3.4 0 0 1 2.268-.828q.828 0 1.764.252.936.216 1.98.468a9 9 0 0 0 2.124.252q1.44 0 1.44-.828 0-.288-.18-.504-.144-.252-.684-.432-.504-.216-1.584-.324-2.412-.288-4.176-.864t-2.736-1.764q-.972-1.224-.972-3.312 0-3.384 2.808-5.472t7.92-2.088m20.874 22.824q-4.428 0-7.056-1.188t-3.816-3.42q-1.152-2.232-1.152-5.328 0-3.924 1.62-6.66a11.1 11.1 0 0 1 4.5-4.248q2.88-1.476 6.516-1.476 4.32 0 6.336 1.728 2.016 1.692 2.016 4.464 0 2.196-1.224 3.816-1.188 1.62-3.348 2.484-2.124.864-4.932.864-1.296 0-2.52-.18a16 16 0 0 1-2.196-.468l.864-2.016a14 14 0 0 0-.108 1.728q0 1.548 1.116 2.196 1.152.648 3.168.648 1.944 0 3.312-.396a46 46 0 0 0 2.412-.828q1.044-.432 1.98-.432.648 0 1.332.324t1.152 1.008.468 1.836q0 1.584-1.188 2.844t-3.528 1.98q-2.304.72-5.724.72m-2.088-12.564q1.728 0 2.988-.828 1.26-.864 1.26-2.088 0-.792-.576-1.296t-1.584-.504q-1.116 0-2.124.432-.972.432-1.584 1.116t-.612 1.512q0 .792.576 1.224.612.432 1.656.432m32.247-13.608q4.752 0 6.984 2.196 2.268 2.196 2.268 5.76 0 2.448-1.152 4.248-1.116 1.8-3.06 2.808-1.908.972-4.356.972-.864 0-1.836-.144-.972-.18-2.016-.54l.324-1.008q.288.792.468 1.98.216 1.152.324 2.412a20 20 0 0 1 .144 2.268q0 2.52-1.224 3.852-1.188 1.332-3.6 1.332-1.836 0-2.88-.864-1.008-.9-1.44-2.916-.396-2.016-.396-5.364 0-4.536.54-7.74.576-3.204 1.62-5.112t3.42-3.024 5.868-1.116m-1.008 10.8q1.764 0 2.916-.9 1.188-.9 1.188-2.448 0-1.008-.648-1.656-.612-.684-2.16-.684-1.188 0-2.124.504-.9.468-1.44 1.26a3.1 3.1 0 0 0-.504 1.692q0 .972.684 1.62.72.612 2.088.612m23.197 15.372q-4.428 0-7.056-1.188t-3.816-3.42q-1.152-2.232-1.152-5.328 0-3.924 1.62-6.66a11.1 11.1 0 0 1 4.5-4.248q2.88-1.476 6.516-1.476 4.32 0 6.336 1.728 2.016 1.692 2.016 4.464 0 2.196-1.224 3.816-1.188 1.62-3.348 2.484-2.124.864-4.932.864-1.296 0-2.52-.18a16 16 0 0 1-2.196-.468l.864-2.016a14 14 0 0 0-.108 1.728q0 1.548 1.116 2.196 1.152.648 3.168.648 1.944 0 3.312-.396a46 46 0 0 0 2.412-.828q1.044-.432 1.98-.432.648 0 1.332.324t1.152 1.008.468 1.836q0 1.584-1.188 2.844t-3.528 1.98q-2.304.72-5.724.72m-2.088-12.564q1.728 0 2.988-.828 1.26-.864 1.26-2.088 0-.792-.576-1.296t-1.584-.504q-1.116 0-2.124.432-.972.432-1.584 1.116t-.612 1.512q0 .792.576 1.224.612.432 1.656.432m19.568-9.396h-.36q-.18-1.584.108-2.988.288-1.44 1.224-2.304.936-.9 2.7-.9 1.8 0 2.628.828t.828 2.304q0 1.872-.864 3.204l-.288-.072a5.7 5.7 0 0 1 2.772-.684q1.872 0 2.988.9 1.152.864 1.152 2.988 0 1.98-1.296 3.024-1.296 1.008-3.24 1.008-.684 0-1.476-.072a10 10 0 0 1-1.476-.324l.18-.396q.468 1.08.9 2.448.432 1.332.756 2.808.36 1.44.54 2.844.216 1.368.216 2.448 0 2.304-1.152 3.636-1.116 1.332-3.456 1.332-1.44 0-2.412-.504a4 4 0 0 1-1.548-1.404q-.576-.9-.828-2.124a13.8 13.8 0 0 1-.252-2.7q0-1.224.18-2.736.216-1.548.612-3.204t.936-3.168l.36.9q-1.152.936-2.916.936-1.98 0-3.096-.972-1.116-1.008-1.116-3.06 0-2.124 1.188-3.276 1.224-1.152 3.276-1.152.648 0 1.224.144.576.108 1.008.288" vector-effect="non-scaling-stroke"/></svg>